<?xml version="1.0" encoding="utf-8"?>
<svg viewBox="0 0 512 512" style="enable-background:new 0 0 512 512;" xmlns="http://www.w3.org/2000/svg">
  <path d="M 163.015 509.392 L 93.49 509.392 C 74.315 509.337 58.784 493.806 58.727 474.63 L 58.727 352.962 C 39.552 352.905 24.021 337.374 23.965 318.198 L 23.965 213.911 C 23.433 184.896 47.093 161.235 76.109 161.767 L 180.397 161.767 C 209.412 161.235 233.072 184.896 232.54 213.911 L 232.54 318.198 C 232.484 337.374 216.953 352.905 197.777 352.962 L 197.777 474.63 C 197.721 493.806 182.191 509.337 163.015 509.392 Z M 76.109 196.53 C 66.274 195.936 58.134 204.076 58.727 213.911 L 58.727 318.198 L 93.49 318.198 L 93.49 474.63 L 163.015 474.63 L 163.015 318.198 L 197.777 318.198 L 197.777 213.911 C 198.371 204.076 190.231 195.936 180.397 196.53 L 76.109 196.53 Z" style=""/>
  <path d="M 128.253 144.386 C 74.732 144.386 41.281 86.448 68.042 40.098 C 94.802 -6.252 161.703 -6.252 188.463 40.098 C 194.565 50.667 197.777 62.656 197.777 74.861 C 197.735 113.241 166.632 144.343 128.253 144.386 Z M 128.253 40.098 C 101.492 40.098 84.767 69.067 98.148 92.242 C 111.528 115.417 144.977 115.417 158.357 92.242 C 161.408 86.958 163.015 80.963 163.015 74.861 C 162.996 55.67 147.444 40.117 128.253 40.098 Z" style=""/>
  <path d="M 489.197 44.544 C 462.062 16.973 418.161 15.27 388.971 40.657 C 359.783 15.27 315.88 16.973 288.746 44.544 C 260.155 73.731 260.155 120.423 288.746 149.609 L 388.937 251.106 L 388.971 251.065 L 389.006 251.098 L 489.197 149.609 C 517.787 120.423 517.787 73.731 489.197 44.544 Z M 464.441 125.176 L 389.006 201.607 L 388.971 201.571 L 388.937 201.605 L 313.502 125.175 C 298.187 109.568 298.187 84.573 313.502 68.967 C 328.774 54.12 353.087 54.12 368.359 68.967 L 388.886 89.953 L 388.971 89.868 L 389.056 89.955 L 409.584 68.969 C 424.857 54.122 449.169 54.122 464.441 68.969 C 479.756 84.575 479.756 109.569 464.441 125.176 Z" style="fill: rgb(114, 184, 251);"/>
  <rect id="_Transparent_Rectangle_" data-name="&lt;Transparent Rectangle&gt;" class="cls-1" width="556.201" height="556.201" style="fill: none;" x="-10.798" y="-29.427"/>
</svg>