<?xml version="1.0" encoding="utf-8"?>
<svg viewBox="0 0 512 512" style="enable-background:new 0 0 512 512;" xmlns="http://www.w3.org/2000/svg">
  <g style="" transform="matrix(12.228707, 0, 0, 12.54051, -60.389946, 10.010206)">
    <path d="M29.973,0H6.809c-0.828,0-1.5,0.672-1.5,1.5v33.781c0,0.828,0.672,1.5,1.5,1.5h23.164c0.828,0,1.5-0.672,1.5-1.5V1.5 C31.473,0.672,30.801,0,29.973,0z M18.391,35.561c-1.012,0-1.833-0.822-1.833-1.836s0.821-1.832,1.833-1.832 c1.014,0,1.834,0.818,1.834,1.832S19.404,35.561,18.391,35.561z M28.473,30.725H8.309V4.059h20.164V30.725z"/>
  </g>
  <g style="" transform="matrix(7.902897, 0, 0, 8.179993, 259.572693, 202.069)">
    <path d="M29.973,0H6.809c-0.828,0-1.5,0.672-1.5,1.5v33.781c0,0.828,0.672,1.5,1.5,1.5h23.164c0.828,0,1.5-0.672,1.5-1.5V1.5 C31.473,0.672,30.801,0,29.973,0z M18.391,35.561c-1.012,0-1.833-0.822-1.833-1.836s0.821-1.832,1.833-1.832 c1.014,0,1.834,0.818,1.834,1.832S19.404,35.561,18.391,35.561z M28.473,30.725H8.309V4.059h20.164V30.725z" style="fill: rgb(114, 184, 251);"/>
  </g>
</svg>